<svg width="18" height="18" viewBox="0 0 18 18" fill="none" xmlns="http://www.w3.org/2000/svg">
<path fill-rule="evenodd" clip-rule="evenodd" d="M5.07668 0.0515079C5.99212 0.00936506 6.284 0 8.6159 0C10.9478 0 11.2397 0.0101455 12.1543 0.0515079C13.069 0.0928703 13.6933 0.238809 14.2396 0.450304C14.8117 0.666481 15.3307 1.0044 15.7599 1.44144C16.1969 1.86989 16.5341 2.38809 16.7495 2.96092C16.9617 3.50722 17.1069 4.13156 17.149 5.04465C17.1912 5.96165 17.2006 6.25353 17.2006 8.58465C17.2006 10.9166 17.1904 11.2084 17.149 12.1239C17.1077 13.037 16.9617 13.6613 16.7495 14.2076C16.5341 14.7805 16.1964 15.2996 15.7599 15.7286C15.3307 16.1657 14.8117 16.5028 14.2396 16.7182C13.6933 16.9305 13.069 17.0757 12.1559 17.1178C11.2397 17.1599 10.9478 17.1693 8.6159 17.1693C6.284 17.1693 5.99212 17.1592 5.07668 17.1178C4.16359 17.0764 3.53925 16.9305 2.99295 16.7182C2.42006 16.5028 1.901 16.1651 1.47191 15.7286C1.03517 15.2999 0.697196 14.7811 0.481554 14.2084C0.270059 13.6621 0.124901 13.0377 0.0827579 12.1247C0.0406151 11.2077 0.03125 10.9158 0.03125 8.58465C0.03125 6.25275 0.0413955 5.96087 0.0827579 5.04621C0.12412 4.13156 0.270059 3.50722 0.481554 2.96092C0.697515 2.38816 1.03575 1.86936 1.47269 1.44066C1.90117 1.00401 2.41971 0.666047 2.99217 0.450304C3.53847 0.238809 4.16281 0.0936507 5.0759 0.0515079H5.07668ZM12.0849 1.59675C11.1796 1.55538 10.908 1.5468 8.6159 1.5468C6.3238 1.5468 6.05221 1.55538 5.14692 1.59675C4.30953 1.63499 3.85532 1.77468 3.55252 1.89253C3.15216 2.04861 2.86575 2.23357 2.56528 2.53403C2.28046 2.81112 2.06127 3.14845 1.92378 3.52127C1.80593 3.82407 1.66624 4.27828 1.628 5.11567C1.58663 6.02096 1.57805 6.29255 1.57805 8.58465C1.57805 10.8768 1.58663 11.1483 1.628 12.0536C1.66624 12.891 1.80593 13.3452 1.92378 13.648C2.06113 14.0203 2.28043 14.3582 2.56528 14.6353C2.84233 14.9201 3.18026 15.1394 3.55252 15.2768C3.85532 15.3946 4.30953 15.5343 5.14692 15.5726C6.05221 15.6139 6.32302 15.6225 8.6159 15.6225C10.9088 15.6225 11.1796 15.6139 12.0849 15.5726C12.9223 15.5343 13.3765 15.3946 13.6793 15.2768C14.0796 15.1207 14.3661 14.9357 14.6665 14.6353C14.9514 14.3582 15.1707 14.0203 15.308 13.648C15.4259 13.3452 15.5656 12.891 15.6038 12.0536C15.6452 11.1483 15.6538 10.8768 15.6538 8.58465C15.6538 6.29255 15.6452 6.02096 15.6038 5.11567C15.5656 4.27828 15.4259 3.82407 15.308 3.52127C15.1519 3.12091 14.967 2.8345 14.6665 2.53403C14.3894 2.24923 14.0521 2.03004 13.6793 1.89253C13.3765 1.77468 12.9223 1.63499 12.0849 1.59675ZM7.51941 11.2311C8.13177 11.486 8.81364 11.5204 9.44856 11.3284C10.0835 11.1364 10.632 10.73 11.0006 10.1785C11.3691 9.62696 11.5347 8.96462 11.4692 8.30456C11.4036 7.64451 11.1109 7.02769 10.6411 6.55945C10.3416 6.26014 9.97947 6.03096 9.58076 5.88841C9.18206 5.74585 8.75671 5.69347 8.33534 5.73503C7.91396 5.77659 7.50704 5.91106 7.14387 6.12876C6.7807 6.34646 6.47032 6.64198 6.23507 6.99403C5.99982 7.34609 5.84555 7.74592 5.78337 8.16475C5.72119 8.58358 5.75265 9.01099 5.87548 9.41621C5.99831 9.82142 6.20945 10.1944 6.49371 10.5082C6.77798 10.822 7.12828 11.0689 7.51941 11.2311ZM5.49577 5.46452C5.90551 5.05478 6.39195 4.72976 6.9273 4.50801C7.46265 4.28625 8.03644 4.17212 8.6159 4.17212C9.19536 4.17212 9.76915 4.28625 10.3045 4.508C10.8399 4.72975 11.3263 5.05478 11.736 5.46452C12.1458 5.87426 12.4708 6.3607 12.6925 6.89605C12.9143 7.4314 13.0284 8.00519 13.0284 8.58465C13.0284 9.16411 12.9143 9.7379 12.6925 10.2733C12.4708 10.8086 12.1458 11.295 11.736 11.7048C10.9085 12.5323 9.78618 12.9972 8.6159 12.9972C7.44563 12.9972 6.32328 12.5323 5.49577 11.7048C4.66826 10.8773 4.20337 9.75493 4.20337 8.58465C4.20337 7.41438 4.66826 6.29203 5.49577 5.46452ZM14.0071 4.82926C14.1086 4.73348 14.1899 4.61829 14.2461 4.49053C14.3023 4.36277 14.3324 4.22503 14.3344 4.08546C14.3364 3.94589 14.3104 3.80733 14.258 3.67798C14.2055 3.54864 14.1276 3.43114 14.0289 3.33244C13.9302 3.23374 13.8127 3.15584 13.6833 3.10337C13.554 3.05089 13.4154 3.0249 13.2759 3.02694C13.1363 3.02897 12.9985 3.05899 12.8708 3.11521C12.743 3.17143 12.6278 3.25272 12.5321 3.35426C12.3458 3.55173 12.2438 3.81402 12.2478 4.08546C12.2517 4.3569 12.3613 4.61611 12.5533 4.80806C12.7452 5.00002 13.0044 5.10961 13.2759 5.11356C13.5473 5.11752 13.8096 5.01554 14.0071 4.82926Z" fill="#666666"/>
</svg>
