<svg width="13" height="17" viewBox="0 0 13 17" fill="none" xmlns="http://www.w3.org/2000/svg">
<path d="M0.371148 6.3998C0.371148 5.73191 0.487899 5.10094 0.717968 4.51203C0.937781 3.94004 1.26436 3.41506 1.68031 2.96508C2.09541 2.521 2.57042 2.137 3.09162 1.82418C3.62638 1.50066 4.20531 1.2566 4.81027 1.09963C5.42254 0.938858 6.05299 0.857779 6.68602 0.858402C7.66381 0.858402 8.57378 1.06529 9.41765 1.47736C10.2505 1.8819 10.9594 2.50274 11.4702 3.27498C11.9973 4.06048 12.2592 4.94899 12.2592 5.93966C12.2592 6.53372 12.2008 7.1149 12.0815 7.6832C11.9643 8.25119 11.7781 8.8027 11.5269 9.32544C11.2875 9.83147 10.9745 10.2993 10.598 10.7136C10.2197 11.1213 9.76151 11.4468 9.25197 11.6699C8.69878 11.9124 8.10036 12.0344 7.49641 12.0279C7.07662 12.0279 6.65769 11.9292 6.24391 11.7309C5.83013 11.5334 5.5331 11.2621 5.35454 10.9145C5.29187 11.1557 5.20602 11.5042 5.09185 11.9601C4.98196 12.4151 4.90814 12.7087 4.87552 12.8417C4.84118 12.9739 4.77765 13.1945 4.68494 13.5002C4.62206 13.7262 4.5414 13.947 4.44371 14.1603L4.1484 14.7389C4.02068 14.9872 3.87791 15.2275 3.72088 15.4583C3.5655 15.6832 3.3732 15.9519 3.14399 16.261L3.01608 16.3065L2.93109 16.2138C2.83924 15.2411 2.79202 14.6591 2.79202 14.4668C2.79202 13.8976 2.85984 13.2589 2.99376 12.5498C3.1251 11.8416 3.33285 10.9514 3.61185 9.88087C3.89086 8.81122 4.05053 8.18197 4.09345 7.99568C3.89686 7.59478 3.79728 7.07112 3.79728 6.42727C3.79728 5.91305 3.95782 5.43145 4.27974 4.97818C4.60252 4.52662 5.01029 4.30085 5.50477 4.30085C5.88335 4.30085 6.17695 4.42618 6.38727 4.67771C6.59845 4.92839 6.70147 5.2443 6.70147 5.62975C6.70147 6.03838 6.56583 6.62986 6.29284 7.40334C6.01985 8.17768 5.88421 8.75542 5.88421 9.13916C5.88421 9.52804 6.02328 9.8534 6.30143 10.1084C6.57592 10.3635 6.93892 10.5017 7.31356 10.4938C7.65351 10.4938 7.96856 10.4166 8.2613 10.2612C8.54946 10.1103 8.79889 9.89499 8.99014 9.63192C9.40668 9.06043 9.70363 8.41077 9.8632 7.72183C9.94561 7.35956 10.0091 7.01531 10.0486 6.69167C10.0907 6.36631 10.1087 6.05898 10.1087 5.76711C10.1087 4.6966 9.76877 3.86217 9.09315 3.26468C8.41411 2.66719 7.52989 2.37016 6.44221 2.37016C5.20517 2.37016 4.17072 2.7702 3.3423 3.57287C2.51302 4.37296 2.0958 5.39024 2.0958 6.62385C2.0958 6.89599 2.13701 7.15868 2.21513 7.41278C2.29153 7.66603 2.37481 7.86777 2.46494 8.01714C2.55423 8.16394 2.63836 8.3073 2.71476 8.43951C2.79202 8.57171 2.83237 8.66614 2.83237 8.7228C2.83237 8.89621 2.78687 9.12199 2.69501 9.40099C2.59972 9.67999 2.48726 9.81906 2.35163 9.81906C2.33875 9.81906 2.28553 9.80962 2.19281 9.78987C1.87171 9.69401 1.58174 9.51481 1.35237 9.2705C1.10895 9.0173 0.916835 8.71937 0.786645 8.39315C0.656826 8.0681 0.555714 7.7323 0.484466 7.38961C0.407489 7.06534 0.369448 6.73306 0.371148 6.3998Z" fill="#666666"/>
</svg>
