<svg width="18" height="15" viewBox="0 0 18 15" fill="none" xmlns="http://www.w3.org/2000/svg">
<path d="M12.1011 2.15074C11.4505 2.15063 10.8259 2.40697 10.3617 2.8646C9.89749 3.32223 9.63073 3.94457 9.61884 4.5977L9.59487 5.95139C9.59347 6.02407 9.57678 6.09564 9.5459 6.16138C9.51501 6.22713 9.47064 6.28558 9.41568 6.3329C9.36072 6.38022 9.29641 6.41533 9.22699 6.43594C9.15756 6.45654 9.08458 6.46218 9.01284 6.45247L7.67671 6.27026C5.91861 6.02961 4.23412 5.21653 2.61811 3.86456C2.10625 6.70946 3.10599 8.68026 5.51375 10.2007L7.00908 11.1444C7.08013 11.1892 7.13915 11.2509 7.18099 11.3239C7.22283 11.397 7.24621 11.4792 7.24908 11.5634C7.25195 11.6476 7.23423 11.7312 7.19746 11.807C7.1607 11.8827 7.10601 11.9483 7.03818 11.9979L5.67552 12.9975C6.4861 13.0482 7.25559 13.0121 7.89412 12.8849C11.9324 12.0752 14.6175 9.02406 14.6175 3.9909C14.6175 3.58007 13.7513 2.15074 12.1011 2.15074ZM7.90696 4.5659C7.9219 3.7374 8.17991 2.93173 8.64868 2.24977C9.11746 1.56782 9.77616 1.03987 10.5423 0.732046C11.3085 0.424218 12.1481 0.350187 12.9559 0.51922C13.7638 0.688253 14.5041 1.09284 15.084 1.68232C15.6926 1.67803 16.2104 1.83273 17.3685 1.12795C17.0818 2.53751 16.9406 3.14947 16.3294 3.9909C16.3294 10.5591 12.3091 13.753 8.22965 14.5703C5.43244 15.1307 1.36501 14.2102 0.199219 12.988C0.793241 12.9416 3.20699 12.6812 4.60217 11.6558C3.42183 10.8745 -1.27642 8.09839 1.81095 0.634608C3.26006 2.33381 4.72971 3.49068 6.21905 4.10436C7.21022 4.51261 7.45245 4.50316 7.90696 4.5659Z" fill="#666666"/>
</svg>
