<svg width="21" height="15" viewBox="0 0 21 15" fill="none" xmlns="http://www.w3.org/2000/svg">
<path d="M20.0309 7.63149C20.0309 7.5823 20.0309 7.52642 20.0286 7.46158C20.0264 7.2805 20.0219 7.07706 20.0174 6.86021C19.9996 6.23648 19.9683 5.61499 19.9191 5.02926C19.852 4.22222 19.7536 3.54931 19.6195 3.04406C19.478 2.5168 19.2005 2.03592 18.8149 1.6495C18.4292 1.26307 17.9489 0.984634 17.4219 0.842012C16.7893 0.672107 15.5507 0.567035 13.807 0.502203C12.9776 0.470905 12.0901 0.450784 11.2025 0.439606C10.8918 0.435135 10.6034 0.4329 10.3441 0.430664H9.6868C9.42747 0.4329 9.13908 0.435135 8.82833 0.439606C7.9408 0.450784 7.05328 0.470905 6.22387 0.502203C4.48012 0.56927 3.23936 0.674343 2.60893 0.842012C2.08178 0.984283 1.60128 1.2626 1.21559 1.64908C0.829892 2.03556 0.552548 2.51663 0.411348 3.04406C0.274977 3.54931 0.178847 4.22222 0.111779 5.02926C0.0625964 5.61499 0.0312982 6.23648 0.0134135 6.86021C0.00670673 7.07706 0.00447114 7.2805 0.00223555 7.46158C0.00223555 7.52642 0 7.5823 0 7.63149V7.75668C0 7.80586 -3.41457e-08 7.86175 0.00223555 7.92659C0.00447114 8.10767 0.00894231 8.31111 0.0134135 8.52796C0.0312982 9.15169 0.0625964 9.77318 0.111779 10.3589C0.178847 11.1659 0.277213 11.8389 0.411348 12.3441C0.697503 13.415 1.53808 14.26 2.60893 14.5462C3.23936 14.7161 4.48012 14.8211 6.22387 14.886C7.05328 14.9173 7.9408 14.9374 8.82833 14.9486C9.13908 14.953 9.42747 14.9553 9.6868 14.9575H10.3441C10.6034 14.9553 10.8918 14.953 11.2025 14.9486C12.0901 14.9374 12.9776 14.9173 13.807 14.886C15.5507 14.8189 16.7915 14.7138 17.4219 14.5462C18.4928 14.26 19.3334 13.4172 19.6195 12.3441C19.7559 11.8389 19.852 11.1659 19.9191 10.3589C19.9683 9.77318 19.9996 9.15169 20.0174 8.52796C20.0241 8.31111 20.0264 8.10767 20.0286 7.92659C20.0286 7.86175 20.0309 7.80586 20.0309 7.75668V7.63149ZM18.4212 7.74774C18.4212 7.79469 18.4212 7.8461 18.419 7.90646C18.4168 8.08084 18.4123 8.2731 18.4078 8.48101C18.3922 9.07568 18.3609 9.67034 18.3139 10.2225C18.2536 10.9424 18.1686 11.5326 18.0635 11.9283C17.9249 12.4447 17.5181 12.8538 17.0039 12.9902C16.5344 13.1154 15.3518 13.216 13.7444 13.2763C12.9306 13.3076 12.0543 13.3278 11.1802 13.3389C10.8739 13.3434 10.59 13.3456 10.3351 13.3456H9.69574L8.85069 13.3389C7.97657 13.3278 7.10246 13.3076 6.28647 13.2763C4.67908 13.2137 3.49422 13.1154 3.02698 12.9902C2.5128 12.8516 2.10592 12.4447 1.96732 11.9283C1.86224 11.5326 1.77729 10.9424 1.71693 10.2225C1.66998 9.67034 1.64092 9.07568 1.62304 8.48101C1.61633 8.2731 1.61409 8.0786 1.61186 7.90646C1.61186 7.8461 1.60962 7.79245 1.60962 7.74774V7.64043C1.60962 7.59348 1.60962 7.54206 1.61186 7.4817C1.61409 7.30733 1.61856 7.11507 1.62304 6.90716C1.63869 6.31249 1.66998 5.71783 1.71693 5.16564C1.77729 4.44578 1.86224 3.85558 1.96732 3.45988C2.10592 2.94346 2.5128 2.53435 3.02698 2.39798C3.49646 2.27279 4.67908 2.17219 6.28647 2.11182C7.10022 2.08053 7.97657 2.06041 8.85069 2.04923C9.15696 2.04476 9.44088 2.04252 9.69574 2.04252H10.3351L11.1802 2.04923C12.0543 2.06041 12.9284 2.08053 13.7444 2.11182C15.3518 2.17442 16.5366 2.27279 17.0039 2.39798C17.5181 2.53659 17.9249 2.94346 18.0635 3.45988C18.1686 3.85558 18.2536 4.44578 18.3139 5.16564C18.3609 5.71783 18.3899 6.31249 18.4078 6.90716C18.4145 7.11507 18.4168 7.30956 18.419 7.4817C18.419 7.54206 18.4212 7.59572 18.4212 7.64043V7.74774ZM8.02576 10.6898L13.2123 7.67173L8.02576 4.6984V10.6898Z" fill="#666666"/>
</svg>